<svg width="23" height="22" viewBox="0 0 23 22" fill="none" xmlns="http://www.w3.org/2000/svg">
<path d="M21.5911 6.20301C21.3611 5.34501 20.6861 4.66801 19.8291 4.43701C18.2631 4.00701 11.9981 4.00001 11.9981 4.00001C11.9981 4.00001 5.73413 3.99301 4.16713 4.40401C3.32713 4.63301 2.63313 5.32501 2.40113 6.18201C1.98813 7.74801 1.98413 10.996 1.98413 10.996C1.98413 10.996 1.98013 14.26 2.39013 15.81C2.62013 16.667 3.29513 17.344 4.15313 17.575C5.73513 18.005 11.9831 18.012 11.9831 18.012C11.9831 18.012 18.2481 18.019 19.8141 17.609C20.6701 17.379 21.3481 16.703 21.5811 15.846C21.9951 14.281 21.9981 11.034 21.9981 11.034C21.9981 11.034 22.0181 7.76901 21.5911 6.20301ZM9.99413 14.005L9.99913 8.00501L15.2061 11.01L9.99413 14.005Z" fill="#555E68"/>
</svg>
