<svg width="23" height="22" viewBox="0 0 23 22" fill="none" xmlns="http://www.w3.org/2000/svg">
<path d="M22.4572 4.01238C21.6876 4.35373 20.8604 4.58442 19.9924 4.68815C20.8783 4.15701 21.5589 3.31598 21.8793 2.31378C21.05 2.80564 20.1316 3.16278 19.154 3.3552C18.3712 2.52112 17.2559 2 16.0215 2C13.6514 2 11.7297 3.92147 11.7297 6.29155C11.7297 6.6279 11.7677 6.95546 11.8409 7.2696C8.27414 7.0906 5.1118 5.38203 2.99514 2.78551C2.6257 3.41935 2.41406 4.15656 2.41406 4.94309C2.41406 6.43204 3.17169 7.74563 4.32328 8.5153C3.61984 8.4929 2.95801 8.2999 2.37944 7.97846C2.37903 7.99639 2.37903 8.0143 2.37903 8.0324C2.37903 10.1118 3.85838 11.8463 5.82164 12.2406C5.46154 12.3387 5.08239 12.3912 4.69099 12.3912C4.41445 12.3912 4.1456 12.3642 3.88351 12.3142C4.42966 14.0191 6.01458 15.26 7.89259 15.2945C6.42381 16.4457 4.57332 17.1318 2.56258 17.1318C2.21617 17.1318 1.87456 17.1114 1.53882 17.0717C3.43808 18.2894 5.69396 19 8.11755 19C16.0114 19 20.3282 12.4605 20.3282 6.78918C20.3282 6.60314 20.324 6.41805 20.3157 6.23395C21.1543 5.62886 21.8819 4.87302 22.4572 4.01238Z" fill="#555E68"/>
</svg>
