<svg width="22" height="22" viewBox="0 0 22 22" fill="none" xmlns="http://www.w3.org/2000/svg">
<path d="M10.997 6.372C8.443 6.372 6.374 8.442 6.374 10.995C6.374 13.549 8.443 15.619 10.997 15.619C13.549 15.619 15.62 13.549 15.62 10.995C15.62 8.442 13.549 6.372 10.997 6.372ZM10.997 13.999C9.338 13.999 7.993 12.654 7.993 10.996C7.993 9.337 9.338 7.993 10.997 7.993C12.656 7.993 13.999 9.337 13.999 10.996C13.999 12.654 12.656 13.999 10.997 13.999Z" fill="white"/>
<path d="M15.804 7.28C16.3994 7.28 16.882 6.79736 16.882 6.202C16.882 5.60664 16.3994 5.124 15.804 5.124C15.2086 5.124 14.726 5.60664 14.726 6.202C14.726 6.79736 15.2086 7.28 15.804 7.28Z" fill="white"/>
<path d="M19.531 5.106C19.062 3.897 18.107 2.941 16.898 2.474C16.199 2.211 15.46 2.07 14.712 2.054C13.749 2.012 13.444 2 11.002 2C8.56 2 8.247 2 7.292 2.054C6.546 2.069 5.807 2.21 5.108 2.474C3.898 2.941 2.943 3.897 2.475 5.106C2.212 5.806 2.071 6.544 2.056 7.292C2.013 8.254 2 8.559 2 11.002C2 13.444 2 13.755 2.056 14.712C2.071 15.46 2.212 16.198 2.475 16.899C2.944 18.107 3.899 19.063 5.109 19.531C5.805 19.803 6.544 19.957 7.294 19.981C8.257 20.023 8.562 20.036 11.004 20.036C13.446 20.036 13.759 20.036 14.714 19.981C15.461 19.966 16.2 19.824 16.9 19.562C18.109 19.093 19.064 18.138 19.533 16.929C19.796 16.229 19.937 15.491 19.952 14.743C19.995 13.781 20.008 13.476 20.008 11.033C20.008 8.59 20.008 8.28 19.952 7.323C19.939 6.565 19.799 5.814 19.531 5.106ZM18.313 14.638C18.306 15.214 18.202 15.785 18.002 16.326C17.697 17.113 17.076 17.735 16.29 18.037C15.755 18.236 15.191 18.34 14.62 18.348C13.67 18.392 13.402 18.403 10.966 18.403C8.528 18.403 8.279 18.403 7.311 18.348C6.742 18.341 6.176 18.236 5.642 18.037C4.853 17.736 4.228 17.114 3.923 16.326C3.727 15.792 3.621 15.227 3.612 14.657C3.569 13.707 3.559 13.439 3.559 11.003C3.559 8.566 3.559 8.317 3.612 7.348C3.619 6.772 3.723 6.202 3.923 5.661C4.228 4.872 4.853 4.251 5.642 3.949C6.176 3.751 6.742 3.646 7.311 3.638C8.262 3.595 8.529 3.583 10.966 3.583C13.403 3.583 13.653 3.583 14.62 3.638C15.191 3.645 15.755 3.75 16.29 3.949C17.076 4.252 17.697 4.874 18.002 5.661C18.198 6.195 18.304 6.76 18.313 7.33C18.356 8.281 18.367 8.548 18.367 10.985C18.367 13.421 18.367 13.683 18.324 14.639H18.313V14.638Z" fill="white"/>
</svg>
