<svg width="147" height="44" viewBox="0 0 147 44" fill="none" xmlns="http://www.w3.org/2000/svg">
<path d="M2 0L2 43.3014" stroke="#83898F" stroke-width="3"/>
<path d="M21.3229 15.8049H26.503V17.7647H18.8833V5.92444H21.3229V15.8049Z" fill="#83898F"/>
<path d="M41.4188 15.3251H37.1413L36.3281 17.7647H33.734L38.1416 5.92444H40.4023L44.8342 17.7647H42.2401L41.4188 15.3251ZM37.8 13.349H40.7601L39.2719 8.91703L37.8 13.349Z" fill="#83898F"/>
<path d="M56.3427 14.829L59.0263 5.92444H61.7424L57.6194 17.7647H55.0741L50.9674 5.92444H53.6754L56.3427 14.829Z" fill="#83898F"/>
<path d="M76.65 12.6334H71.9659V15.8049H77.4632V17.7647H69.5263V5.92444H77.4469V7.90052H71.9659V10.7223H76.65V12.6334Z" fill="#83898F"/>
<path d="M95.1845 17.7647H92.7449L87.9958 9.97419V17.7647H85.5562V5.92444H87.9958L92.753 13.7312V5.92444H95.1845V17.7647Z" fill="#83898F"/>
<path d="M103.977 17.7647V5.92444H107.62C108.661 5.92444 109.591 6.16027 110.409 6.63193C111.233 7.09816 111.876 7.76499 112.337 8.63241C112.797 9.4944 113.028 10.4757 113.028 11.5762V12.121C113.028 13.2216 112.8 14.2001 112.345 15.0567C111.895 15.9133 111.258 16.5774 110.434 17.0491C109.61 17.5207 108.68 17.7593 107.644 17.7647H103.977ZM106.416 7.90052V15.8049H107.596C108.55 15.8049 109.279 15.4931 109.783 14.8697C110.287 14.2462 110.545 13.3544 110.556 12.1942V11.5681C110.556 10.3645 110.306 9.45374 109.808 8.83571C109.309 8.21225 108.58 7.90052 107.62 7.90052H106.416Z" fill="#83898F"/>
<path d="M128.594 12.6334H123.91V15.8049H129.407V17.7647H121.471V5.92444H129.391V7.90052H123.91V10.7223H128.594V12.6334Z" fill="#83898F"/>
<path d="M141.884 13.4303H139.94V17.7647H137.5V5.92444H141.9C143.299 5.92444 144.377 6.23617 145.136 6.85962C145.895 7.48308 146.275 8.36405 146.275 9.50253C146.275 10.3103 146.099 10.9853 145.746 11.5274C145.399 12.0641 144.871 12.4924 144.16 12.8123L146.722 17.6508V17.7647H144.104L141.884 13.4303ZM139.94 11.4542H141.908C142.521 11.4542 142.995 11.2997 143.331 10.9907C143.667 10.6763 143.835 10.2453 143.835 9.6977C143.835 9.1393 143.675 8.70017 143.355 8.38031C143.041 8.06045 142.556 7.90052 141.9 7.90052H139.94V11.4542Z" fill="#83898F"/>
<path d="M25.5678 36.4206H21.2904L20.4772 38.8603H17.8831L22.2906 27.02H24.5513L28.9833 38.8603H26.3892L25.5678 36.4206ZM21.9491 34.4446H24.9091L23.421 30.0126L21.9491 34.4446Z" fill="#83898F"/>
<path d="M45.9402 37.364C45.5011 37.8898 44.8803 38.2991 44.078 38.5919C43.2756 38.8792 42.3865 39.0229 41.4107 39.0229C40.386 39.0229 39.4861 38.8006 38.7108 38.3561C37.941 37.9061 37.3446 37.2555 36.9218 36.4044C36.5043 35.5532 36.2902 34.553 36.2793 33.4037V32.5986C36.2793 31.4167 36.4772 30.3948 36.873 29.5328C37.2742 28.6654 37.8488 28.004 38.597 27.5486C39.3505 27.0878 40.2315 26.8574 41.2399 26.8574C42.644 26.8574 43.7418 27.1935 44.5333 27.8657C45.3249 28.5326 45.7938 29.5057 45.9402 30.7851H43.5656C43.4572 30.1075 43.216 29.6114 42.8419 29.297C42.4732 28.9825 41.9636 28.8253 41.3131 28.8253C40.4836 28.8253 39.852 29.1371 39.4183 29.7605C38.9846 30.384 38.765 31.311 38.7596 32.5417V33.2979C38.7596 34.5394 38.9954 35.4773 39.4671 36.1116C39.9388 36.7459 40.63 37.0631 41.5408 37.0631C42.457 37.0631 43.1102 36.8679 43.5006 36.4776V34.4364H41.2805V32.6392H45.9402V37.364Z" fill="#83898F"/>
<path d="M61.7098 33.7289H57.0258V36.9004H62.523V38.8603H54.5862V27.02H62.5068V28.9961H57.0258V31.8179H61.7098V33.7289Z" fill="#83898F"/>
<path d="M80.2444 38.8603H77.8047L73.0556 31.0698V38.8603H70.616V27.02H73.0556L77.8129 34.8268V27.02H80.2444V38.8603Z" fill="#83898F"/>
<path d="M98.3316 34.9162C98.2395 36.1902 97.7678 37.1932 96.9166 37.9251C96.0709 38.657 94.9541 39.0229 93.5662 39.0229C92.0483 39.0229 90.8529 38.5133 89.98 37.4941C89.1126 36.4694 88.6789 35.0653 88.6789 33.2817V32.5579C88.6789 31.4194 88.8795 30.4165 89.2807 29.5491C89.6818 28.6817 90.2538 28.0175 90.9965 27.5567C91.7447 27.0905 92.6121 26.8574 93.5988 26.8574C94.965 26.8574 96.0655 27.2233 96.9004 27.9552C97.7353 28.6871 98.2178 29.7144 98.3479 31.0372H95.9083C95.8486 30.2728 95.6345 29.7198 95.2658 29.3783C94.9026 29.0313 94.3469 28.8579 93.5988 28.8579C92.7856 28.8579 92.1757 29.1506 91.7691 29.7361C91.3679 30.3162 91.1619 31.2189 91.151 32.4441V33.3386C91.151 34.618 91.3435 35.5532 91.7284 36.1442C92.1187 36.7351 92.7314 37.0305 93.5662 37.0305C94.3198 37.0305 94.8809 36.8598 95.2496 36.5182C95.6236 36.1713 95.8378 35.6373 95.892 34.9162H98.3316Z" fill="#83898F"/>
<path d="M110.678 32.3546L113.142 27.02H115.809L111.922 34.5665V38.8603H109.442V34.5665L105.554 27.02H108.23L110.678 32.3546Z" fill="#83898F"/>
</svg>
