<svg width="89" height="70" viewBox="0 0 89 70" fill="none" xmlns="http://www.w3.org/2000/svg">
<path d="M20.2491 70C16.2687 70 12.8076 68.9474 9.86558 66.8421C6.92359 64.5614 4.67383 61.4912 3.11631 57.6316C1.55879 53.7719 0.780029 49.386 0.780029 44.4737C0.780029 38.5088 1.73185 32.807 3.63549 27.3684C5.71218 21.7544 8.82723 16.579 12.9806 11.8421C17.134 7.10527 22.4988 3.1579 29.075 0L39.9777 10.2632C35.3051 11.8421 31.1517 14.0351 27.5175 16.8421C24.0563 19.6491 21.2009 22.807 18.9511 26.3158C16.8744 29.8246 15.4034 33.4211 14.5381 37.1053L15.5765 37.6316C16.2687 37.1053 17.134 36.6667 18.1724 36.3158C19.2107 35.9649 20.7682 35.7895 22.8449 35.7895C24.9216 35.7895 27.0848 36.4035 29.3346 37.6316C31.5844 38.8597 33.4015 40.7018 34.7859 43.1579C36.3434 45.4386 37.1222 48.5088 37.1222 52.3684C37.1222 55.5263 36.3434 58.4211 34.7859 61.0526C33.4015 63.6842 31.4113 65.8772 28.8154 67.6316C26.2196 69.2105 23.3641 70 20.2491 70ZM69.0514 70C65.0711 70 61.6099 68.9474 58.6679 66.8421C55.7259 64.5614 53.4762 61.4912 51.9187 57.6316C50.3611 53.7719 49.5824 49.386 49.5824 44.4737C49.5824 38.5088 50.5342 32.807 52.4378 27.3684C54.5145 21.7544 57.6296 16.579 61.783 11.8421C65.9364 7.10527 71.3012 3.1579 77.8774 0L88.78 10.2632C84.1075 11.8421 79.9541 14.0351 76.3198 16.8421C72.8587 19.6491 70.0032 22.807 67.7535 26.3158C65.6768 29.8246 64.2058 33.4211 63.3405 37.1053L64.3788 37.6316C65.0711 37.1053 65.9364 36.6667 66.9747 36.3158C68.0131 35.9649 69.5706 35.7895 71.6473 35.7895C73.724 35.7895 75.8872 36.4035 78.137 37.6316C80.3867 38.8597 82.2038 40.7018 83.5883 43.1579C85.1458 45.4386 85.9246 48.5088 85.9246 52.3684C85.9246 55.5263 85.1458 58.4211 83.5883 61.0526C82.2038 63.6842 80.2137 65.8772 77.6178 67.6316C75.0219 69.2105 72.1665 70 69.0514 70Z" fill="#1AA090"/>
</svg>
